<svg id="Layer_1" data-name="Layer 1" xmlns="http://www.w3.org/2000/svg" viewBox="0 0 140 200">
  <defs>
    <style>
      .cls-1 {
        fill: #fced5e;
      }

      .cls-2 {
        fill: #ffd507;
      }

      .cls-3, .cls-4, .cls-5, .cls-6 {
        fill: #fff;
      }

      .cls-4, .cls-5, .cls-6, .cls-7 {
        stroke: #1a171b;
        stroke-linecap: round;
        stroke-linejoin: round;
      }

      .cls-4 {
        stroke-width: 0.78px;
      }

      .cls-5 {
        stroke-width: 0.68px;
      }

      .cls-6 {
        stroke-width: 0.71px;
      }

      .cls-7 {
        fill: none;
        stroke-width: 1.87px;
      }
    </style>
  </defs>
  <g>
    <path class="cls-1" d="M57.6,102.87c-1.26,28.9-8.77,58.6-12,87.28-.25,2.23-.41,4.71.9,6.48a7,7,0,0,0,3.83,2.29,26.14,26.14,0,0,0,5,.88c1.53-31.66,8.45-65.58,16.27-95A55,55,0,0,1,57.6,102.87Z"/>
    <path class="cls-2" d="M98.2,196.43a133.09,133.09,0,0,1-1.43-14c-.21-4.42-.33-8.84-.54-13.26a71.34,71.34,0,0,0-.63-7.87c-3.61-23-2.55-39.2-5.77-59.51a54.37,54.37,0,0,1-17.81,3h-.48c-7.82,29.43-14.74,63.35-16.27,95,2.21.2,4.45.2,6.67.2l16.44-.06c5.32,0,10.71.18,16-.18.5,0,1,0,1.51-.06a2.62,2.62,0,0,0,2.25-1.33A3.64,3.64,0,0,0,98.2,196.43Z"/>
  </g>
  <g>
    <path class="cls-3" d="M72.47,159.47a9.18,9.18,0,0,1-5.33-1.7l-4.55-.26a1,1,0,0,1-.87-.6,1.09,1.09,0,0,1,.11-1.09l1-1.4a.17.17,0,0,0,0-.15.16.16,0,0,0-.11-.1l-3.26-.64a1,1,0,0,1-.82-.92,1.07,1.07,0,0,1,.59-1.09L63,149.73a.17.17,0,0,0,.09-.16l-1.34-15.15a1.07,1.07,0,0,1,.25-.81,1,1,0,0,1,.75-.35,1,1,0,0,1,.67.27l7.69,7.16a.16.16,0,0,0,.09,0,8.75,8.75,0,0,1,1.23-.08,8.65,8.65,0,0,1,1.23.08h0a.18.18,0,0,0,.11,0l7.7-7a1,1,0,0,1,.66-.26,1,1,0,0,1,.76.35,1.1,1.1,0,0,1,.25.82l-1.46,14.75c0,.24,0,.46,0,.67l3.51,1.55a1.08,1.08,0,0,1-.17,2l-2.81.66a.15.15,0,0,0-.11.11.15.15,0,0,0,0,.15l1.4,1.54a1.09,1.09,0,0,1,.19,1.15,1,1,0,0,1-.93.64L78,157.66a.15.15,0,0,0-.08,0A9.26,9.26,0,0,1,72.47,159.47Z"/>
    <g>
      <polyline class="cls-4" points="64.71 150.67 61.32 152.28 65.28 153.07"/>
      <polyline class="cls-4" points="65.44 153.43 63.6 155.98 67.63 156.19"/>
      <polyline class="cls-4" points="80.25 151.09 83.25 152.41 79.56 153.29"/>
      <polyline class="cls-4" points="79.37 153.67 81.67 156.22 77.46 156.06"/>
      <polyline class="cls-4" points="64.69 150.05 63.41 135.59 70.73 142.41"/>
      <polyline class="cls-4" points="74.22 142.42 81.56 135.77 80.25 149.02"/>
      <ellipse class="cls-4" cx="72.47" cy="150.05" rx="7.78" ry="7.84"/>
      <ellipse class="cls-4" cx="75.72" cy="150.2" rx="2.95" ry="3.09"/>
      <ellipse class="cls-5" cx="75.75" cy="150.2" rx="1.73" ry="1.81"/>
      <ellipse class="cls-4" cx="68.93" cy="149.98" rx="2.95" ry="3.09"/>
      <ellipse class="cls-6" cx="68.93" cy="149.98" rx="1.81" ry="1.89"/>
      <path class="cls-4" d="M69.46,154.39a5.94,5.94,0,0,0,4,.53,3.08,3.08,0,0,0,.84-.28,2,2,0,0,0,.55-.41"/>
    </g>
  </g>
  <path class="cls-7" d="M96.77,182.47c-.21-4.42-.33-8.84-.54-13.26a71.34,71.34,0,0,0-.63-7.87c-3.61-23-2.55-39.2-5.77-59.51a54.37,54.37,0,0,1-17.81,3,55,55,0,0,1-14.42-1.93c-1.26,28.9-8.77,58.6-12,87.28-.25,2.23-.41,4.71.9,6.48a7,7,0,0,0,3.83,2.29C54.07,200,58,200,61.94,200l16.44-.06c5.32,0,10.71.18,16-.18.5,0,1,0,1.51-.06a2.62,2.62,0,0,0,2.25-1.33,3.64,3.64,0,0,0,.06-1.94A133.09,133.09,0,0,1,96.77,182.47Z"/>
</svg>
