<svg id="Layer_1" data-name="Layer 1" xmlns="http://www.w3.org/2000/svg" viewBox="0 0 140 200">
  <defs>
    <style>
      .cls-1 {
        fill: #fff;
      }

      .cls-1, .cls-2, .cls-3 {
        stroke: #1a171b;
        stroke-linecap: round;
        stroke-linejoin: round;
        stroke-width: 1.25px;
      }

      .cls-2 {
        fill: none;
      }

      .cls-3 {
        fill: #fee096;
      }
    </style>
  </defs>
  <g>
    <path class="cls-1" d="M53.25,89.75C61.19,89.75,67.65,83.2,68,75A16.91,16.91,0,0,0,62,67.78a11.18,11.18,0,0,1,1.69,6,10.41,10.41,0,1,1-20.8,0,11.18,11.18,0,0,1,1.69-6A16.91,16.91,0,0,0,38.47,75C38.85,83.2,45.31,89.75,53.25,89.75Z"/>
    <path class="cls-2" d="M53.25,58.71c-8.19,0-14.82,6.95-14.82,15.52,0,.26,0,.5,0,.76a16.91,16.91,0,0,1,6.07-7.21,15.64,15.64,0,0,1,17.42,0A16.91,16.91,0,0,1,68,75c0-.26,0-.5,0-.76C68.07,65.66,61.44,58.71,53.25,58.71Z"/>
    <path d="M44.54,67.78a11.18,11.18,0,0,0-1.69,6,10.41,10.41,0,1,0,20.8,0,11.18,11.18,0,0,0-1.69-6,15.64,15.64,0,0,0-17.42,0Z"/>
  </g>
  <path class="cls-3" d="M95.75,58.16c-8.42-1.36-16.3,4.69-17.6,13.51,0,.26-.05.52-.08.79-.85,8.51,4.81,16.32,13,17.64s15.81-4.34,17.45-12.73c0-.26.12-.51.15-.77C110,67.78,104.18,59.52,95.75,58.16Z"/>
  <path class="cls-3" d="M53.25,58.71c-8.19,0-14.82,6.95-14.82,15.52,0,.26,0,.5,0,.76.38,8.21,6.84,14.76,14.78,14.76S67.65,83.2,68,75c0-.26,0-.5,0-.76C68.07,65.66,61.43,58.71,53.25,58.71Z"/>
</svg>
