<svg id="Layer_1" data-name="Layer 1" xmlns="http://www.w3.org/2000/svg" viewBox="0 0 140 200">
  <defs>
    <style>
      .cls-1 {
        fill: #cde5f5;
      }

      .cls-2 {
        fill: #e8a576;
      }

      .cls-3 {
        fill: #fff;
      }

      .cls-4 {
        fill: #f9c5a1;
        stroke-width: 0.55px;
      }

      .cls-4, .cls-5, .cls-6, .cls-7 {
        stroke: #1a171b;
        stroke-linecap: round;
        stroke-linejoin: round;
      }

      .cls-10, .cls-5 {
        fill: none;
      }

      .cls-5, .cls-6, .cls-7 {
        stroke-width: 0.55px;
      }

      .cls-6 {
        fill: #e8611a;
      }

      .cls-7 {
        fill: #ec7342;
      }

      .cls-8 {
        fill: #6a3820;
      }

      .cls-9 {
        fill: #8c5d48;
      }

      .cls-10 {
        stroke: #000;
        stroke-miterlimit: 10;
        stroke-width: 0.35px;
      }
    </style>
  </defs>
  <g>
    <path class="cls-1" d="M122.23,138.06c.11-.95-6.26-2.51-14.37-3.56L109,124c0-.31-.57-.6-1.32-.65s-1.37.16-1.39.46l-1.07,10.35c-7.62-.83-13.6-.81-13.71.1,0,.28.52.61,1.5,1h0l-.25,39.13a17.58,17.58,0,0,0,6.91,3.21c5.46,1,10.36-.11,10.91-.65s9.34-38.24,9.34-38.24h0C121.32,138.61,122.19,138.4,122.23,138.06Z"/>
    <path class="cls-2" d="M122.23,138.06c.11-.95-6.26-2.51-14.37-3.56L109,124c0-.31-.57-.6-1.32-.65s-1.37.16-1.39.46l-1.07,10.35c-7.62-.83-13.6-.81-13.71.1,0,.28.52.61,1.5,1h0l-.25,39.13a17.58,17.58,0,0,0,6.91,3.21c5.46,1,10.36-.11,10.91-.65s9.34-38.24,9.34-38.24h0C121.32,138.61,122.19,138.4,122.23,138.06Z"/>
    <path class="cls-3" d="M119.8,138.66a78.58,78.58,0,0,1-12.4-.67h0l-.81-.09-1.82-.24h0a67.64,67.64,0,0,1-11.86-2.45h0l-.07,9.73c.22-1.78,5.9-2.55,12.71-1.72s12.18,3,12,4.76c0,0,0,0,0,0l.09,0c1.28-5.39,2.2-9.37,2.2-9.37h0Z"/>
    <ellipse class="cls-4" cx="105.27" cy="146.52" rx="3.26" ry="12.44" transform="translate(-53.06 233) rotate(-82.95)"/>
    <path class="cls-5" d="M119.9,138.71s-8.8,37.71-9.34,38.24-5.45,1.61-10.91.65a17.58,17.58,0,0,1-6.91-3.21L93,135.26"/>
    <path class="cls-6" d="M104.85,137.71l-.9,8.75a1.12,1.12,0,0,0,1.14,1,1.5,1.5,0,0,0,1.46-.89l.93-8.51-.81-.09Z"/>
    <path class="cls-5" d="M107.68,123.38h0a2.69,2.69,0,0,1,.75.15A2.69,2.69,0,0,0,107.68,123.38Z"/>
    <path class="cls-5" d="M109,124h0c0-.16-.13-.31-.37-.42C108.87,123.72,109,123.87,109,124Z"/>
    <path class="cls-5" d="M107.68,123.38a2.32,2.32,0,0,0-1.14.17,2.32,2.32,0,0,1,1.14-.17Z"/>
    <path class="cls-6" d="M106.29,123.84c0,.31.57.6,1.32.65s1.37-.16,1.39-.46h0c0-.16-.13-.31-.37-.42l-.2-.08a2.69,2.69,0,0,0-.75-.15,2.32,2.32,0,0,0-1.14.17A.41.41,0,0,0,106.29,123.84Z"/>
    <path class="cls-5" d="M107.61,124.49c-.75,0-1.34-.34-1.32-.65l-1.07,10.35-.2,1.94a2.87,2.87,0,0,0,1.25.48,3.83,3.83,0,0,0,1.38-.1l.21-2L109,124C109,124.33,108.36,124.54,107.61,124.49Z"/>
    <ellipse class="cls-7" cx="106.87" cy="136.18" rx="1.79" ry="15.47" transform="translate(-41.34 225.62) rotate(-82.99)"/>
    <path class="cls-7" d="M107.61,124.49c-.75,0-1.34-.34-1.32-.65l-1.07,10.35h0l-.2,1.94a2.87,2.87,0,0,0,1.25.48,3.79,3.79,0,0,0,1.38-.1l.21-2h0L109,124C109,124.33,108.36,124.54,107.61,124.49Z"/>
    <g>
      <g>
        <path class="cls-8" d="M111.35,161.51a1.79,1.79,0,0,1,.24,1,1.7,1.7,0,0,1-1.71,1.68,1.61,1.61,0,0,1-.86-.29,1.65,1.65,0,0,0,1.36.84,1.69,1.69,0,0,0,1.71-1.68A1.76,1.76,0,0,0,111.35,161.51Z"/>
        <path class="cls-9" d="M111.59,162.46a1.79,1.79,0,0,0-.24-1,1.61,1.61,0,0,0-.86-.29,1.69,1.69,0,0,0-1.71,1.68,1.82,1.82,0,0,0,.24.95,1.61,1.61,0,0,0,.86.29A1.7,1.7,0,0,0,111.59,162.46Z"/>
      </g>
      <path class="cls-10" d="M111.35,161.51a1.61,1.61,0,0,0-.86-.29,1.69,1.69,0,0,0-1.71,1.68,1.82,1.82,0,0,0,.24.95,1.65,1.65,0,0,0,1.36.84,1.69,1.69,0,0,0,1.71-1.68A1.76,1.76,0,0,0,111.35,161.51Z"/>
      <path class="cls-3" d="M109.77,162.06a.69.69,0,0,1,.37-.43.61.61,0,0,1,.54.05c-.08,0-.19,0-.28.06a.61.61,0,0,0-.15.13,1.13,1.13,0,0,1-.47.22V162"/>
    </g>
    <g>
      <g>
        <path class="cls-8" d="M109.75,168.39a1.79,1.79,0,0,1,.23,1,1.69,1.69,0,0,1-1.7,1.68,1.58,1.58,0,0,1-.86-.29,1.65,1.65,0,0,0,1.36.84,1.69,1.69,0,0,0,1.71-1.68A1.76,1.76,0,0,0,109.75,168.39Z"/>
        <path class="cls-9" d="M110,169.34a1.79,1.79,0,0,0-.23-1,1.61,1.61,0,0,0-.86-.29,1.69,1.69,0,0,0-1.71,1.68,1.82,1.82,0,0,0,.24.95,1.58,1.58,0,0,0,.86.29A1.69,1.69,0,0,0,110,169.34Z"/>
      </g>
      <path class="cls-10" d="M109.75,168.39a1.61,1.61,0,0,0-.86-.29,1.69,1.69,0,0,0-1.71,1.68,1.82,1.82,0,0,0,.24.95,1.65,1.65,0,0,0,1.36.84,1.69,1.69,0,0,0,1.71-1.68A1.76,1.76,0,0,0,109.75,168.39Z"/>
      <path class="cls-3" d="M108.17,168.94a.68.68,0,0,1,.36-.43.6.6,0,0,1,.54.05c-.07.05-.18,0-.27.06a.61.61,0,0,0-.15.13,1.13,1.13,0,0,1-.47.22v-.09"/>
    </g>
    <g>
      <g>
        <path class="cls-8" d="M105.91,164a1.76,1.76,0,0,1,.24.94,1.69,1.69,0,0,1-1.71,1.68,1.61,1.61,0,0,1-.86-.29,1.64,1.64,0,0,0,1.37.84,1.7,1.7,0,0,0,1.71-1.68A1.73,1.73,0,0,0,105.91,164Z"/>
        <path class="cls-9" d="M106.15,164.92a1.76,1.76,0,0,0-.24-.94,1.51,1.51,0,0,0-.86-.3,1.69,1.69,0,0,0-1.7,1.68,1.79,1.79,0,0,0,.23.95,1.61,1.61,0,0,0,.86.29A1.69,1.69,0,0,0,106.15,164.92Z"/>
      </g>
      <path class="cls-10" d="M105.91,164a1.51,1.51,0,0,0-.86-.3,1.69,1.69,0,0,0-1.7,1.68,1.79,1.79,0,0,0,.23.95,1.64,1.64,0,0,0,1.37.84,1.7,1.7,0,0,0,1.71-1.68A1.73,1.73,0,0,0,105.91,164Z"/>
      <path class="cls-3" d="M104.34,164.52a.63.63,0,0,1,.36-.42.6.6,0,0,1,.54,0c-.08.06-.18,0-.27.07s-.1.08-.15.12a1.37,1.37,0,0,1-.47.23v-.09"/>
    </g>
    <g>
      <g>
        <path class="cls-8" d="M106.23,172.32a1.79,1.79,0,0,1,.23,1,1.69,1.69,0,0,1-1.71,1.68,1.51,1.51,0,0,1-.85-.3,1.64,1.64,0,0,0,1.36.85,1.69,1.69,0,0,0,1.71-1.68A1.76,1.76,0,0,0,106.23,172.32Z"/>
        <path class="cls-9" d="M106.46,173.27a1.79,1.79,0,0,0-.23-1,1.61,1.61,0,0,0-.86-.29,1.69,1.69,0,0,0-1.71,1.68,1.76,1.76,0,0,0,.24.94,1.51,1.51,0,0,0,.85.3A1.69,1.69,0,0,0,106.46,173.27Z"/>
      </g>
      <path class="cls-10" d="M106.23,172.32a1.61,1.61,0,0,0-.86-.29,1.69,1.69,0,0,0-1.71,1.68,1.76,1.76,0,0,0,.24.94,1.64,1.64,0,0,0,1.36.85,1.69,1.69,0,0,0,1.71-1.68A1.76,1.76,0,0,0,106.23,172.32Z"/>
      <path class="cls-3" d="M104.65,172.86a.68.68,0,0,1,.36-.42.6.6,0,0,1,.54.05c-.07,0-.18,0-.27.06a.88.88,0,0,0-.15.12,1.15,1.15,0,0,1-.47.23v-.09"/>
    </g>
    <g>
      <g>
        <path class="cls-8" d="M102,168a1.79,1.79,0,0,1,.23.95,1.69,1.69,0,0,1-1.71,1.68,1.59,1.59,0,0,1-.85-.3,1.64,1.64,0,0,0,1.36.85,1.69,1.69,0,0,0,1.71-1.68A1.76,1.76,0,0,0,102,168Z"/>
        <path class="cls-9" d="M102.24,169A1.79,1.79,0,0,0,102,168a1.61,1.61,0,0,0-.86-.29,1.69,1.69,0,0,0-1.71,1.68,1.76,1.76,0,0,0,.24.94,1.59,1.59,0,0,0,.85.3A1.69,1.69,0,0,0,102.24,169Z"/>
      </g>
      <path class="cls-10" d="M102,168a1.61,1.61,0,0,0-.86-.29,1.69,1.69,0,0,0-1.71,1.68,1.76,1.76,0,0,0,.24.94,1.64,1.64,0,0,0,1.36.85,1.69,1.69,0,0,0,1.71-1.68A1.76,1.76,0,0,0,102,168Z"/>
      <path class="cls-3" d="M100.43,168.54a.68.68,0,0,1,.36-.42.6.6,0,0,1,.54,0c-.07.05-.18,0-.27.06a.88.88,0,0,0-.15.12,1.15,1.15,0,0,1-.47.23v-.09"/>
    </g>
    <g>
      <g>
        <path class="cls-8" d="M102,160.36a1.79,1.79,0,0,1,.24.95,1.7,1.7,0,0,1-1.71,1.68,1.54,1.54,0,0,1-.86-.3,1.64,1.64,0,0,0,1.36.85,1.69,1.69,0,0,0,1.71-1.68A1.76,1.76,0,0,0,102,160.36Z"/>
        <path class="cls-9" d="M102.28,161.31a1.79,1.79,0,0,0-.24-.95,1.61,1.61,0,0,0-.86-.29,1.7,1.7,0,0,0-1.71,1.68,1.76,1.76,0,0,0,.24.94,1.54,1.54,0,0,0,.86.3A1.7,1.7,0,0,0,102.28,161.31Z"/>
      </g>
      <path class="cls-10" d="M102,160.36a1.61,1.61,0,0,0-.86-.29,1.7,1.7,0,0,0-1.71,1.68,1.76,1.76,0,0,0,.24.94,1.64,1.64,0,0,0,1.36.85,1.69,1.69,0,0,0,1.71-1.68A1.76,1.76,0,0,0,102,160.36Z"/>
      <path class="cls-3" d="M100.47,160.9a.68.68,0,0,1,.36-.42.61.61,0,0,1,.54.05c-.08.05-.19,0-.27.06a.47.47,0,0,0-.15.13,1.4,1.4,0,0,1-.48.22l0-.09"/>
    </g>
    <g>
      <g>
        <path class="cls-8" d="M98.18,171.59a1.76,1.76,0,0,1,.24.94,1.69,1.69,0,0,1-1.71,1.68,1.61,1.61,0,0,1-.86-.29,1.64,1.64,0,0,0,1.37.84,1.7,1.7,0,0,0,1.71-1.68A1.73,1.73,0,0,0,98.18,171.59Z"/>
        <path class="cls-9" d="M98.42,172.53a1.76,1.76,0,0,0-.24-.94,1.51,1.51,0,0,0-.86-.3,1.68,1.68,0,0,0-1.7,1.68,1.7,1.7,0,0,0,.23.95,1.61,1.61,0,0,0,.86.29A1.69,1.69,0,0,0,98.42,172.53Z"/>
      </g>
      <path class="cls-10" d="M98.18,171.59a1.51,1.51,0,0,0-.86-.3,1.68,1.68,0,0,0-1.7,1.68,1.7,1.7,0,0,0,.23.95,1.64,1.64,0,0,0,1.37.84,1.7,1.7,0,0,0,1.71-1.68A1.73,1.73,0,0,0,98.18,171.59Z"/>
      <path class="cls-3" d="M96.61,172.13a.63.63,0,0,1,.36-.42.61.61,0,0,1,.54,0c-.08.06-.18,0-.27.07s-.1.08-.15.12a1.37,1.37,0,0,1-.47.23v-.09"/>
    </g>
    <g>
      <g>
        <path class="cls-8" d="M97.4,165.43a1.76,1.76,0,0,1,.24.94,1.69,1.69,0,0,1-1.71,1.68,1.61,1.61,0,0,1-.86-.29,1.64,1.64,0,0,0,1.37.84,1.7,1.7,0,0,0,1.71-1.68A1.73,1.73,0,0,0,97.4,165.43Z"/>
        <path class="cls-9" d="M97.64,166.37a1.76,1.76,0,0,0-.24-.94,1.51,1.51,0,0,0-.86-.3,1.68,1.68,0,0,0-1.7,1.68,1.7,1.7,0,0,0,.23.95,1.61,1.61,0,0,0,.86.29A1.69,1.69,0,0,0,97.64,166.37Z"/>
      </g>
      <path class="cls-10" d="M97.4,165.43a1.51,1.51,0,0,0-.86-.3,1.68,1.68,0,0,0-1.7,1.68,1.7,1.7,0,0,0,.23.95,1.64,1.64,0,0,0,1.37.84,1.7,1.7,0,0,0,1.71-1.68A1.73,1.73,0,0,0,97.4,165.43Z"/>
      <path class="cls-3" d="M95.83,166a.63.63,0,0,1,.36-.42.58.58,0,0,1,.54,0c-.08.06-.18,0-.27.07a.42.42,0,0,0-.15.12,1.37,1.37,0,0,1-.47.23v-.09"/>
    </g>
    <g>
      <g>
        <path class="cls-8" d="M96.44,159.91a1.79,1.79,0,0,1,.24,1A1.7,1.7,0,0,1,95,162.54a1.54,1.54,0,0,1-.86-.3,1.64,1.64,0,0,0,1.36.85,1.69,1.69,0,0,0,1.71-1.68A1.76,1.76,0,0,0,96.44,159.91Z"/>
        <path class="cls-9" d="M96.68,160.86a1.79,1.79,0,0,0-.24-1,1.61,1.61,0,0,0-.86-.29,1.69,1.69,0,0,0-1.71,1.68,1.76,1.76,0,0,0,.24.94,1.54,1.54,0,0,0,.86.3A1.7,1.7,0,0,0,96.68,160.86Z"/>
      </g>
      <path class="cls-10" d="M96.44,159.91a1.61,1.61,0,0,0-.86-.29,1.69,1.69,0,0,0-1.71,1.68,1.76,1.76,0,0,0,.24.94,1.64,1.64,0,0,0,1.36.85,1.69,1.69,0,0,0,1.71-1.68A1.76,1.76,0,0,0,96.44,159.91Z"/>
      <path class="cls-3" d="M94.86,160.45a.7.7,0,0,1,.37-.42.59.59,0,0,1,.53.05c-.07,0-.18,0-.27.06a.88.88,0,0,0-.15.12,1.15,1.15,0,0,1-.47.23v-.09"/>
    </g>
  </g>
</svg>
