<svg id="Layer_1" data-name="Layer 1" xmlns="http://www.w3.org/2000/svg" viewBox="0 0 140 200">
  <defs>
    <style>
      .cls-1 {
        fill: #4a4e99;
      }

      .cls-2 {
        fill: #38398c;
      }

      .cls-3 {
        fill: #fee096;
      }

      .cls-3, .cls-4, .cls-5, .cls-6 {
        stroke: #1a171b;
        stroke-linecap: round;
        stroke-linejoin: round;
      }

      .cls-3, .cls-6 {
        stroke-width: 1.87px;
      }

      .cls-4, .cls-6 {
        fill: none;
      }

      .cls-4, .cls-5 {
        stroke-width: 1.25px;
      }

      .cls-5 {
        fill: #fff;
      }
    </style>
  </defs>
  <path class="cls-1" d="M58.61,18.44a28.27,28.27,0,0,0-8.75-2.86h0a35.23,35.23,0,0,0-18,3.21c-6.2-6.2-19.31-6.33-26.52,3.06-8.61,11.21-4.57,17.95-3.3,20,1.63,2.67,4.84,4.6,7.42,5.79a68.51,68.51,0,0,0,.4,7.07,20.41,20.41,0,0,0,2.85,8C23.43,39.17,41.1,25.88,58.61,18.44Z"/>
  <path class="cls-2" d="M140,34.73c0-2.13-2.11-12.41-12.65-18.08-7.6-4.1-14.78-.52-18.2,1.79a29.76,29.76,0,0,0-23.79-2.08C80.54,18.09,70,25.58,70,25.58a71,71,0,0,0-11.38-7.14C41.1,25.88,23.43,39.17,12.73,62.74a51.17,51.17,0,0,0,6.61,8.93s-.49,15.2,4.73,22.54,12,14.45,14,15.34,4.23.29,3.95-2.29-2.78-8.08-3.7-10.33c-.46-1.12-2-3.44-3.79-7.43a70.71,70.71,0,0,1-5-17.9c-2.47-16-1.36-19.54.74-20.53s6.93,2.13,8.66,3.65,7.25,2.34,8.9.68,6-11,8.57-10.29,5.61,5.44,7.91,7.94,2.32,5.28,5.32,5.66S78.07,46.06,82.64,46s7.7,11.88,15.53,8.74,9.15-7,11.54-4.17S112.1,60,112.1,60.9s1,16.13-1,22.61c-1.64,5.21-6.68,8.6-9.24,12.33a8.72,8.72,0,0,0-1.36,2.84c-1.24,5-3.85,10.48-1.24,11.92s17.48-12.95,19.13-20.31,1.74-15.84,2.43-19.3a.3.3,0,0,0,0-.1l.13-.4c1.36-3.48,9.52-9,9.26-20,0-.95-.07-1.84-.13-2.7C134.47,47.14,140,44.26,140,34.73Z"/>
  <path class="cls-3" d="M111.9,61c0-1,0-7.5-2.39-10.35s-3.71,1-11.54,4.17S87,45.94,82.45,46,72.34,59.14,69.35,58.76s-3-3.16-5.32-5.66-5.37-7.25-7.92-7.94-6.92,8.63-8.57,10.29-7.17.84-8.9-.68S32.09,50.13,30,51.12s-3.22,4.57-.74,20.53a70.35,70.35,0,0,0,5,17.9,52.67,52.67,0,0,0,37.54,15.3c11.15,0,26.54-5.51,29.84-9s7.6-7.12,9.24-12.33C112.94,77.08,111.9,61.9,111.9,61Z"/>
  <path class="cls-4" d="M41.17,61.82a2.93,2.93,0,0,0,1,1,.85.85,0,0,1,.37.24c.07.09.12.22.22.21"/>
  <path class="cls-4" d="M51.8,58.62a10.47,10.47,0,0,0-.13-2.17,4.62,4.62,0,0,1-.11-.63,1,1,0,0,0-.07-.42"/>
  <path class="cls-4" d="M64.22,62.73a8.32,8.32,0,0,1,1-1.09l-.11,0"/>
  <path class="cls-4" d="M84.39,57a27,27,0,0,1,1.93,2.07"/>
  <path class="cls-4" d="M95.37,54.72a4.21,4.21,0,0,1,0,1.8c-.07.4-.18.89.11,1.17,0,0,.07.06.07.11s-.08.07-.08,0"/>
  <path class="cls-4" d="M103.34,61.32A5,5,0,0,0,104.83,60a1.89,1.89,0,0,1,.57-.59"/>
  <g>
    <path class="cls-5" d="M53.25,89.75C61.19,89.75,67.65,83.2,68,75A16.91,16.91,0,0,0,62,67.78a11.18,11.18,0,0,1,1.69,6,10.41,10.41,0,1,1-20.8,0,11.18,11.18,0,0,1,1.69-6A16.91,16.91,0,0,0,38.47,75C38.85,83.2,45.31,89.75,53.25,89.75Z"/>
    <path class="cls-4" d="M53.25,58.71c-8.19,0-14.82,6.95-14.82,15.52,0,.26,0,.5,0,.76a16.91,16.91,0,0,1,6.07-7.21,15.64,15.64,0,0,1,17.42,0A16.91,16.91,0,0,1,68,75c0-.26,0-.5,0-.76C68.07,65.66,61.44,58.71,53.25,58.71Z"/>
    <path d="M44.54,67.78a11.18,11.18,0,0,0-1.69,6,10.41,10.41,0,1,0,20.8,0,11.18,11.18,0,0,0-1.69-6,15.64,15.64,0,0,0-17.42,0Z"/>
  </g>
  <g>
    <path class="cls-5" d="M91.05,90.1c8.17,1.32,15.81-4.34,17.45-12.73a18,18,0,0,0-5.16-8.43,11.72,11.72,0,0,1,.84,6.41,10.91,10.91,0,0,1-12.35,9.48,11.29,11.29,0,0,1-9.06-12.94,11.47,11.47,0,0,1,2.65-5.84,17.23,17.23,0,0,0-7.35,6.41C77.22,81,82.88,88.78,91.05,90.1Z"/>
    <path class="cls-4" d="M95.75,58.16c-8.42-1.36-16.3,4.69-17.6,13.51,0,.26-.05.52-.08.79a17.23,17.23,0,0,1,7.35-6.41,16.22,16.22,0,0,1,9.36-1.28,16.53,16.53,0,0,1,8.56,4.17,18,18,0,0,1,5.16,8.43c0-.26.12-.51.15-.77C110,67.78,104.18,59.52,95.75,58.16Z"/>
    <path d="M85.42,66.05a11.47,11.47,0,0,0-2.65,5.84,11.29,11.29,0,0,0,9.06,12.94,10.91,10.91,0,0,0,12.35-9.48,11.72,11.72,0,0,0-.84-6.41,16.53,16.53,0,0,0-8.56-4.17A16.22,16.22,0,0,0,85.42,66.05Z"/>
  </g>
  <path class="cls-4" d="M57.14,97.62c1.69.18,5.87.38,7.56.36"/>
  <path class="cls-6" d="M140,34.73c0-2.13-2.11-12.41-12.65-18.08-7.6-4.1-14.78-.52-18.2,1.79a29.76,29.76,0,0,0-23.79-2.08C80.54,18.09,70,25.58,70,25.58s-11.36-9-20.13-10h0a35.23,35.23,0,0,0-18,3.21c-6.2-6.2-19.31-6.33-26.52,3.06-8.61,11.21-4.57,17.95-3.3,20,1.63,2.67,4.84,4.6,7.42,5.79a68.51,68.51,0,0,0,.4,7.07c.65,7.72,9.46,17,9.46,17s-.49,15.2,4.73,22.54,12,14.45,14,15.34,4.23.29,3.95-2.29-2.78-8.08-3.7-10.33c-.46-1.12-2-3.44-3.79-7.43a70.71,70.71,0,0,1-5-17.9c-2.47-16-1.36-19.54.74-20.53s6.93,2.13,8.66,3.65,7.25,2.34,8.9.68,6-11,8.57-10.29,5.61,5.44,7.91,7.94,2.32,5.28,5.32,5.66S78.07,46.06,82.64,46s7.7,11.88,15.53,8.74,9.15-7,11.54-4.17S112.1,60,112.1,60.9s1,16.13-1,22.61c-1.64,5.21-6.68,8.6-9.24,12.33a8.72,8.72,0,0,0-1.36,2.84c-1.24,5-3.85,10.48-1.24,11.92s17.48-12.95,19.13-20.31,1.74-15.84,2.43-19.3a.3.3,0,0,0,0-.1l.13-.4c1.36-3.48,9.52-9,9.26-20,0-.95-.07-1.84-.13-2.7C134.47,47.14,140,44.26,140,34.73Z"/>
</svg>
