<svg id="Layer_1" data-name="Layer 1" xmlns="http://www.w3.org/2000/svg" viewBox="0 0 140 200">
  <defs>
    <style>
      .cls-1 {
        fill: #cde5f5;
      }

      .cls-2 {
        fill: #e8a576;
      }

      .cls-17, .cls-18, .cls-19, .cls-20, .cls-3 {
        fill: #fff;
      }

      .cls-4 {
        fill: #f9c5a1;
        stroke-width: 0.55px;
      }

      .cls-15, .cls-16, .cls-17, .cls-18, .cls-19, .cls-20, .cls-21, .cls-4, .cls-5, .cls-6, .cls-7 {
        stroke: #1a171b;
        stroke-linecap: round;
        stroke-linejoin: round;
      }

      .cls-10, .cls-16, .cls-21, .cls-5 {
        fill: none;
      }

      .cls-5, .cls-6, .cls-7 {
        stroke-width: 0.55px;
      }

      .cls-6 {
        fill: #e8611a;
      }

      .cls-7 {
        fill: #ec7342;
      }

      .cls-8 {
        fill: #6a3820;
      }

      .cls-9 {
        fill: #8c5d48;
      }

      .cls-10 {
        stroke: #000;
        stroke-miterlimit: 10;
        stroke-width: 0.35px;
      }

      .cls-11 {
        fill: #4a4e99;
      }

      .cls-12 {
        fill: #38398c;
      }

      .cls-13 {
        fill: #fced5e;
      }

      .cls-14 {
        fill: #ffd507;
      }

      .cls-15 {
        fill: #fee096;
      }

      .cls-15, .cls-21 {
        stroke-width: 1.87px;
      }

      .cls-16, .cls-17 {
        stroke-width: 1.25px;
      }

      .cls-18 {
        stroke-width: 0.78px;
      }

      .cls-19 {
        stroke-width: 0.68px;
      }

      .cls-20 {
        stroke-width: 0.71px;
      }
    </style>
  </defs>
  <g>
    <g>
      <path class="cls-1" d="M122.23,138.06c.11-.95-6.26-2.51-14.37-3.56L109,124c0-.31-.57-.6-1.32-.65s-1.37.16-1.39.46l-1.07,10.35c-7.62-.83-13.6-.81-13.71.1,0,.28.52.61,1.5,1h0l-.25,39.13a17.58,17.58,0,0,0,6.91,3.21c5.46,1,10.36-.11,10.91-.65s9.34-38.24,9.34-38.24h0C121.32,138.61,122.19,138.4,122.23,138.06Z"/>
      <path class="cls-2" d="M122.23,138.06c.11-.95-6.26-2.51-14.37-3.56L109,124c0-.31-.57-.6-1.32-.65s-1.37.16-1.39.46l-1.07,10.35c-7.62-.83-13.6-.81-13.71.1,0,.28.52.61,1.5,1h0l-.25,39.13a17.58,17.58,0,0,0,6.91,3.21c5.46,1,10.36-.11,10.91-.65s9.34-38.24,9.34-38.24h0C121.32,138.61,122.19,138.4,122.23,138.06Z"/>
      <path class="cls-3" d="M119.8,138.66a78.58,78.58,0,0,1-12.4-.67h0l-.81-.09-1.82-.24h0a67.64,67.64,0,0,1-11.86-2.45h0l-.07,9.73c.22-1.78,5.9-2.55,12.71-1.72s12.18,3,12,4.76c0,0,0,0,0,0l.09,0c1.28-5.39,2.2-9.37,2.2-9.37h0Z"/>
      <ellipse class="cls-4" cx="105.27" cy="146.52" rx="3.26" ry="12.44" transform="translate(-53.06 233) rotate(-82.95)"/>
      <path class="cls-5" d="M119.9,138.71s-8.8,37.71-9.34,38.24-5.45,1.61-10.91.65a17.58,17.58,0,0,1-6.91-3.21L93,135.26"/>
      <path class="cls-6" d="M104.85,137.71l-.9,8.75a1.12,1.12,0,0,0,1.14,1,1.5,1.5,0,0,0,1.46-.89l.93-8.51-.81-.09Z"/>
      <path class="cls-5" d="M107.68,123.38h0a2.69,2.69,0,0,1,.75.15A2.69,2.69,0,0,0,107.68,123.38Z"/>
      <path class="cls-5" d="M109,124h0c0-.16-.13-.31-.37-.42C108.87,123.72,109,123.87,109,124Z"/>
      <path class="cls-5" d="M107.68,123.38a2.32,2.32,0,0,0-1.14.17,2.32,2.32,0,0,1,1.14-.17Z"/>
      <path class="cls-6" d="M106.29,123.84c0,.31.57.6,1.32.65s1.37-.16,1.39-.46h0c0-.16-.13-.31-.37-.42l-.2-.08a2.69,2.69,0,0,0-.75-.15,2.32,2.32,0,0,0-1.14.17A.41.41,0,0,0,106.29,123.84Z"/>
      <path class="cls-5" d="M107.61,124.49c-.75,0-1.34-.34-1.32-.65l-1.07,10.35-.2,1.94a2.87,2.87,0,0,0,1.25.48,3.83,3.83,0,0,0,1.38-.1l.21-2L109,124C109,124.33,108.36,124.54,107.61,124.49Z"/>
      <ellipse class="cls-7" cx="106.87" cy="136.18" rx="1.79" ry="15.47" transform="translate(-41.34 225.62) rotate(-82.99)"/>
      <path class="cls-7" d="M107.61,124.49c-.75,0-1.34-.34-1.32-.65l-1.07,10.35h0l-.2,1.94a2.87,2.87,0,0,0,1.25.48,3.79,3.79,0,0,0,1.38-.1l.21-2h0L109,124C109,124.33,108.36,124.54,107.61,124.49Z"/>
      <g>
        <g>
          <path class="cls-8" d="M111.35,161.51a1.79,1.79,0,0,1,.24,1,1.7,1.7,0,0,1-1.71,1.68,1.61,1.61,0,0,1-.86-.29,1.65,1.65,0,0,0,1.36.84,1.69,1.69,0,0,0,1.71-1.68A1.76,1.76,0,0,0,111.35,161.51Z"/>
          <path class="cls-9" d="M111.59,162.46a1.79,1.79,0,0,0-.24-1,1.61,1.61,0,0,0-.86-.29,1.69,1.69,0,0,0-1.71,1.68,1.82,1.82,0,0,0,.24.95,1.61,1.61,0,0,0,.86.29A1.7,1.7,0,0,0,111.59,162.46Z"/>
        </g>
        <path class="cls-10" d="M111.35,161.51a1.61,1.61,0,0,0-.86-.29,1.69,1.69,0,0,0-1.71,1.68,1.82,1.82,0,0,0,.24.95,1.65,1.65,0,0,0,1.36.84,1.69,1.69,0,0,0,1.71-1.68A1.76,1.76,0,0,0,111.35,161.51Z"/>
        <path class="cls-3" d="M109.77,162.06a.69.69,0,0,1,.37-.43.61.61,0,0,1,.54.05c-.08,0-.19,0-.28.06a.61.61,0,0,0-.15.13,1.13,1.13,0,0,1-.47.22V162"/>
      </g>
      <g>
        <g>
          <path class="cls-8" d="M109.75,168.39a1.79,1.79,0,0,1,.23,1,1.69,1.69,0,0,1-1.7,1.68,1.58,1.58,0,0,1-.86-.29,1.65,1.65,0,0,0,1.36.84,1.69,1.69,0,0,0,1.71-1.68A1.76,1.76,0,0,0,109.75,168.39Z"/>
          <path class="cls-9" d="M110,169.34a1.79,1.79,0,0,0-.23-1,1.61,1.61,0,0,0-.86-.29,1.69,1.69,0,0,0-1.71,1.68,1.82,1.82,0,0,0,.24.95,1.58,1.58,0,0,0,.86.29A1.69,1.69,0,0,0,110,169.34Z"/>
        </g>
        <path class="cls-10" d="M109.75,168.39a1.61,1.61,0,0,0-.86-.29,1.69,1.69,0,0,0-1.71,1.68,1.82,1.82,0,0,0,.24.95,1.65,1.65,0,0,0,1.36.84,1.69,1.69,0,0,0,1.71-1.68A1.76,1.76,0,0,0,109.75,168.39Z"/>
        <path class="cls-3" d="M108.17,168.94a.68.68,0,0,1,.36-.43.6.6,0,0,1,.54.05c-.07.05-.18,0-.27.06a.61.61,0,0,0-.15.13,1.13,1.13,0,0,1-.47.22v-.09"/>
      </g>
      <g>
        <g>
          <path class="cls-8" d="M105.91,164a1.76,1.76,0,0,1,.24.94,1.69,1.69,0,0,1-1.71,1.68,1.61,1.61,0,0,1-.86-.29,1.64,1.64,0,0,0,1.37.84,1.7,1.7,0,0,0,1.71-1.68A1.73,1.73,0,0,0,105.91,164Z"/>
          <path class="cls-9" d="M106.15,164.92a1.76,1.76,0,0,0-.24-.94,1.51,1.51,0,0,0-.86-.3,1.69,1.69,0,0,0-1.7,1.68,1.79,1.79,0,0,0,.23.95,1.61,1.61,0,0,0,.86.29A1.69,1.69,0,0,0,106.15,164.92Z"/>
        </g>
        <path class="cls-10" d="M105.91,164a1.51,1.51,0,0,0-.86-.3,1.69,1.69,0,0,0-1.7,1.68,1.79,1.79,0,0,0,.23.95,1.64,1.64,0,0,0,1.37.84,1.7,1.7,0,0,0,1.71-1.68A1.73,1.73,0,0,0,105.91,164Z"/>
        <path class="cls-3" d="M104.34,164.52a.63.63,0,0,1,.36-.42.6.6,0,0,1,.54,0c-.08.06-.18,0-.27.07s-.1.08-.15.12a1.37,1.37,0,0,1-.47.23v-.09"/>
      </g>
      <g>
        <g>
          <path class="cls-8" d="M106.23,172.32a1.79,1.79,0,0,1,.23,1,1.69,1.69,0,0,1-1.71,1.68,1.51,1.51,0,0,1-.85-.3,1.64,1.64,0,0,0,1.36.85,1.69,1.69,0,0,0,1.71-1.68A1.76,1.76,0,0,0,106.23,172.32Z"/>
          <path class="cls-9" d="M106.46,173.27a1.79,1.79,0,0,0-.23-1,1.61,1.61,0,0,0-.86-.29,1.69,1.69,0,0,0-1.71,1.68,1.76,1.76,0,0,0,.24.94,1.51,1.51,0,0,0,.85.3A1.69,1.69,0,0,0,106.46,173.27Z"/>
        </g>
        <path class="cls-10" d="M106.23,172.32a1.61,1.61,0,0,0-.86-.29,1.69,1.69,0,0,0-1.71,1.68,1.76,1.76,0,0,0,.24.94,1.64,1.64,0,0,0,1.36.85,1.69,1.69,0,0,0,1.71-1.68A1.76,1.76,0,0,0,106.23,172.32Z"/>
        <path class="cls-3" d="M104.65,172.86a.68.68,0,0,1,.36-.42.6.6,0,0,1,.54.05c-.07,0-.18,0-.27.06a.88.88,0,0,0-.15.12,1.15,1.15,0,0,1-.47.23v-.09"/>
      </g>
      <g>
        <g>
          <path class="cls-8" d="M102,168a1.79,1.79,0,0,1,.23.95,1.69,1.69,0,0,1-1.71,1.68,1.59,1.59,0,0,1-.85-.3,1.64,1.64,0,0,0,1.36.85,1.69,1.69,0,0,0,1.71-1.68A1.76,1.76,0,0,0,102,168Z"/>
          <path class="cls-9" d="M102.24,169A1.79,1.79,0,0,0,102,168a1.61,1.61,0,0,0-.86-.29,1.69,1.69,0,0,0-1.71,1.68,1.76,1.76,0,0,0,.24.94,1.59,1.59,0,0,0,.85.3A1.69,1.69,0,0,0,102.24,169Z"/>
        </g>
        <path class="cls-10" d="M102,168a1.61,1.61,0,0,0-.86-.29,1.69,1.69,0,0,0-1.71,1.68,1.76,1.76,0,0,0,.24.94,1.64,1.64,0,0,0,1.36.85,1.69,1.69,0,0,0,1.71-1.68A1.76,1.76,0,0,0,102,168Z"/>
        <path class="cls-3" d="M100.43,168.54a.68.68,0,0,1,.36-.42.6.6,0,0,1,.54,0c-.07.05-.18,0-.27.06a.88.88,0,0,0-.15.12,1.15,1.15,0,0,1-.47.23v-.09"/>
      </g>
      <g>
        <g>
          <path class="cls-8" d="M102,160.36a1.79,1.79,0,0,1,.24.95,1.7,1.7,0,0,1-1.71,1.68,1.54,1.54,0,0,1-.86-.3,1.64,1.64,0,0,0,1.36.85,1.69,1.69,0,0,0,1.71-1.68A1.76,1.76,0,0,0,102,160.36Z"/>
          <path class="cls-9" d="M102.28,161.31a1.79,1.79,0,0,0-.24-.95,1.61,1.61,0,0,0-.86-.29,1.7,1.7,0,0,0-1.71,1.68,1.76,1.76,0,0,0,.24.94,1.54,1.54,0,0,0,.86.3A1.7,1.7,0,0,0,102.28,161.31Z"/>
        </g>
        <path class="cls-10" d="M102,160.36a1.61,1.61,0,0,0-.86-.29,1.7,1.7,0,0,0-1.71,1.68,1.76,1.76,0,0,0,.24.94,1.64,1.64,0,0,0,1.36.85,1.69,1.69,0,0,0,1.71-1.68A1.76,1.76,0,0,0,102,160.36Z"/>
        <path class="cls-3" d="M100.47,160.9a.68.68,0,0,1,.36-.42.61.61,0,0,1,.54.05c-.08.05-.19,0-.27.06a.47.47,0,0,0-.15.13,1.4,1.4,0,0,1-.48.22l0-.09"/>
      </g>
      <g>
        <g>
          <path class="cls-8" d="M98.18,171.59a1.76,1.76,0,0,1,.24.94,1.69,1.69,0,0,1-1.71,1.68,1.61,1.61,0,0,1-.86-.29,1.64,1.64,0,0,0,1.37.84,1.7,1.7,0,0,0,1.71-1.68A1.73,1.73,0,0,0,98.18,171.59Z"/>
          <path class="cls-9" d="M98.42,172.53a1.76,1.76,0,0,0-.24-.94,1.51,1.51,0,0,0-.86-.3,1.68,1.68,0,0,0-1.7,1.68,1.7,1.7,0,0,0,.23.95,1.61,1.61,0,0,0,.86.29A1.69,1.69,0,0,0,98.42,172.53Z"/>
        </g>
        <path class="cls-10" d="M98.18,171.59a1.51,1.51,0,0,0-.86-.3,1.68,1.68,0,0,0-1.7,1.68,1.7,1.7,0,0,0,.23.95,1.64,1.64,0,0,0,1.37.84,1.7,1.7,0,0,0,1.71-1.68A1.73,1.73,0,0,0,98.18,171.59Z"/>
        <path class="cls-3" d="M96.61,172.13a.63.63,0,0,1,.36-.42.61.61,0,0,1,.54,0c-.08.06-.18,0-.27.07s-.1.08-.15.12a1.37,1.37,0,0,1-.47.23v-.09"/>
      </g>
      <g>
        <g>
          <path class="cls-8" d="M97.4,165.43a1.76,1.76,0,0,1,.24.94,1.69,1.69,0,0,1-1.71,1.68,1.61,1.61,0,0,1-.86-.29,1.64,1.64,0,0,0,1.37.84,1.7,1.7,0,0,0,1.71-1.68A1.73,1.73,0,0,0,97.4,165.43Z"/>
          <path class="cls-9" d="M97.64,166.37a1.76,1.76,0,0,0-.24-.94,1.51,1.51,0,0,0-.86-.3,1.68,1.68,0,0,0-1.7,1.68,1.7,1.7,0,0,0,.23.95,1.61,1.61,0,0,0,.86.29A1.69,1.69,0,0,0,97.64,166.37Z"/>
        </g>
        <path class="cls-10" d="M97.4,165.43a1.51,1.51,0,0,0-.86-.3,1.68,1.68,0,0,0-1.7,1.68,1.7,1.7,0,0,0,.23.95,1.64,1.64,0,0,0,1.37.84,1.7,1.7,0,0,0,1.71-1.68A1.73,1.73,0,0,0,97.4,165.43Z"/>
        <path class="cls-3" d="M95.83,166a.63.63,0,0,1,.36-.42.58.58,0,0,1,.54,0c-.08.06-.18,0-.27.07a.42.42,0,0,0-.15.12,1.37,1.37,0,0,1-.47.23v-.09"/>
      </g>
      <g>
        <g>
          <path class="cls-8" d="M96.44,159.91a1.79,1.79,0,0,1,.24,1A1.7,1.7,0,0,1,95,162.54a1.54,1.54,0,0,1-.86-.3,1.64,1.64,0,0,0,1.36.85,1.69,1.69,0,0,0,1.71-1.68A1.76,1.76,0,0,0,96.44,159.91Z"/>
          <path class="cls-9" d="M96.68,160.86a1.79,1.79,0,0,0-.24-1,1.61,1.61,0,0,0-.86-.29,1.69,1.69,0,0,0-1.71,1.68,1.76,1.76,0,0,0,.24.94,1.54,1.54,0,0,0,.86.3A1.7,1.7,0,0,0,96.68,160.86Z"/>
        </g>
        <path class="cls-10" d="M96.44,159.91a1.61,1.61,0,0,0-.86-.29,1.69,1.69,0,0,0-1.71,1.68,1.76,1.76,0,0,0,.24.94,1.64,1.64,0,0,0,1.36.85,1.69,1.69,0,0,0,1.71-1.68A1.76,1.76,0,0,0,96.44,159.91Z"/>
        <path class="cls-3" d="M94.86,160.45a.7.7,0,0,1,.37-.42.59.59,0,0,1,.53.05c-.07,0-.18,0-.27.06a.88.88,0,0,0-.15.12,1.15,1.15,0,0,1-.47.23v-.09"/>
      </g>
    </g>
    <path class="cls-11" d="M58.61,18.44a28.27,28.27,0,0,0-8.75-2.86h0a35.23,35.23,0,0,0-18,3.21c-6.2-6.2-19.31-6.33-26.52,3.06-8.61,11.21-4.57,17.95-3.3,20,1.63,2.67,4.84,4.6,7.42,5.79a68.51,68.51,0,0,0,.4,7.07,20.41,20.41,0,0,0,2.85,8C23.43,39.17,41.1,25.88,58.61,18.44Z"/>
    <path class="cls-12" d="M140,34.73c0-2.13-2.11-12.41-12.65-18.08-7.6-4.1-14.78-.52-18.2,1.79a29.76,29.76,0,0,0-23.79-2.08C80.54,18.09,70,25.58,70,25.58a71,71,0,0,0-11.38-7.14C41.1,25.88,23.43,39.17,12.73,62.74a51.17,51.17,0,0,0,6.61,8.93s-.49,15.2,4.73,22.54,12,14.45,14,15.34,4.23.29,3.95-2.29-2.78-8.08-3.7-10.33c-.46-1.12-2-3.44-3.79-7.43a70.71,70.71,0,0,1-5-17.9c-2.47-16-1.36-19.54.74-20.53s6.93,2.13,8.66,3.65,7.25,2.34,8.9.68,6-11,8.57-10.29,5.61,5.44,7.91,7.94,2.32,5.28,5.32,5.66S78.07,46.06,82.64,46s7.7,11.88,15.53,8.74,9.15-7,11.54-4.17S112.1,60,112.1,60.9s1,16.13-1,22.61c-1.64,5.21-6.68,8.6-9.24,12.33a8.72,8.72,0,0,0-1.36,2.84c-1.24,5-3.85,10.48-1.24,11.92s17.48-12.95,19.13-20.31,1.74-15.84,2.43-19.3a.3.3,0,0,0,0-.1l.13-.4c1.36-3.48,9.52-9,9.26-20,0-.95-.07-1.84-.13-2.7C134.47,47.14,140,44.26,140,34.73Z"/>
    <g>
      <path class="cls-13" d="M57.6,102.87c-1.26,28.9-8.77,58.6-12,87.28-.25,2.23-.41,4.71.9,6.48a7,7,0,0,0,3.83,2.29,26.14,26.14,0,0,0,5,.88c1.53-31.66,8.45-65.58,16.27-95A55,55,0,0,1,57.6,102.87Z"/>
      <path class="cls-14" d="M98.2,196.43a133.09,133.09,0,0,1-1.43-14c-.21-4.42-.33-8.84-.54-13.26a71.34,71.34,0,0,0-.63-7.87c-3.61-23-2.55-39.2-5.77-59.51a54.37,54.37,0,0,1-17.81,3h-.48c-7.82,29.43-14.74,63.35-16.27,95,2.21.2,4.45.2,6.67.2l16.44-.06c5.32,0,10.71.18,16-.18.5,0,1,0,1.51-.06a2.62,2.62,0,0,0,2.25-1.33A3.64,3.64,0,0,0,98.2,196.43Z"/>
    </g>
    <path class="cls-15" d="M111.9,61c0-1,0-7.5-2.39-10.35s-3.71,1-11.54,4.17S87,45.94,82.45,46,72.34,59.14,69.35,58.76s-3-3.16-5.32-5.66-5.37-7.25-7.92-7.94-6.92,8.63-8.57,10.29-7.17.84-8.9-.68S32.09,50.13,30,51.12s-3.22,4.57-.74,20.53a70.35,70.35,0,0,0,5,17.9,52.67,52.67,0,0,0,37.54,15.3c11.15,0,26.54-5.51,29.84-9s7.6-7.12,9.24-12.33C112.94,77.08,111.9,61.9,111.9,61Z"/>
    <path class="cls-3" d="M72.47,159.47a9.18,9.18,0,0,1-5.33-1.7l-4.55-.26a1,1,0,0,1-.87-.6,1.09,1.09,0,0,1,.11-1.09l1-1.4a.17.17,0,0,0,0-.15.16.16,0,0,0-.11-.1l-3.26-.64a1,1,0,0,1-.82-.92,1.07,1.07,0,0,1,.59-1.09L63,149.73a.17.17,0,0,0,.09-.16l-1.34-15.15a1.07,1.07,0,0,1,.25-.81,1,1,0,0,1,.75-.35,1,1,0,0,1,.67.27l7.69,7.16a.16.16,0,0,0,.09,0,8.75,8.75,0,0,1,1.23-.08,8.65,8.65,0,0,1,1.23.08h0a.18.18,0,0,0,.11,0l7.7-7a1,1,0,0,1,.66-.26,1,1,0,0,1,.76.35,1.1,1.1,0,0,1,.25.82l-1.46,14.75c0,.24,0,.46,0,.67l3.51,1.55a1.08,1.08,0,0,1-.17,2l-2.81.66a.15.15,0,0,0-.11.11.15.15,0,0,0,0,.15l1.4,1.54a1.09,1.09,0,0,1,.19,1.15,1,1,0,0,1-.93.64L78,157.66a.15.15,0,0,0-.08,0A9.26,9.26,0,0,1,72.47,159.47Z"/>
    <path class="cls-16" d="M41.17,61.82a2.93,2.93,0,0,0,1,1,.85.85,0,0,1,.37.24c.07.09.12.22.22.21"/>
    <path class="cls-16" d="M51.8,58.62a10.47,10.47,0,0,0-.13-2.17,4.62,4.62,0,0,1-.11-.63,1,1,0,0,0-.07-.42"/>
    <path class="cls-16" d="M64.22,62.73a8.32,8.32,0,0,1,1-1.09l-.11,0"/>
    <path class="cls-16" d="M84.39,57a27,27,0,0,1,1.93,2.07"/>
    <path class="cls-16" d="M95.37,54.72a4.21,4.21,0,0,1,0,1.8c-.07.4-.18.89.11,1.17,0,0,.07.06.07.11s-.08.07-.08,0"/>
    <path class="cls-16" d="M103.34,61.32A5,5,0,0,0,104.83,60a1.89,1.89,0,0,1,.57-.59"/>
    <g>
      <path class="cls-17" d="M53.25,89.75C61.19,89.75,67.65,83.2,68,75A16.91,16.91,0,0,0,62,67.78a11.18,11.18,0,0,1,1.69,6,10.41,10.41,0,1,1-20.8,0,11.18,11.18,0,0,1,1.69-6A16.91,16.91,0,0,0,38.47,75C38.85,83.2,45.31,89.75,53.25,89.75Z"/>
      <path class="cls-16" d="M53.25,58.71c-8.19,0-14.82,6.95-14.82,15.52,0,.26,0,.5,0,.76a16.91,16.91,0,0,1,6.07-7.21,15.64,15.64,0,0,1,17.42,0A16.91,16.91,0,0,1,68,75c0-.26,0-.5,0-.76C68.07,65.66,61.44,58.71,53.25,58.71Z"/>
      <path d="M44.54,67.78a11.18,11.18,0,0,0-1.69,6,10.41,10.41,0,1,0,20.8,0,11.18,11.18,0,0,0-1.69-6,15.64,15.64,0,0,0-17.42,0Z"/>
    </g>
    <g>
      <path class="cls-17" d="M91.05,90.1c8.17,1.32,15.81-4.34,17.45-12.73a18,18,0,0,0-5.16-8.43,11.72,11.72,0,0,1,.84,6.41,10.91,10.91,0,0,1-12.35,9.48,11.29,11.29,0,0,1-9.06-12.94,11.47,11.47,0,0,1,2.65-5.84,17.23,17.23,0,0,0-7.35,6.41C77.22,81,82.88,88.78,91.05,90.1Z"/>
      <path class="cls-16" d="M95.75,58.16c-8.42-1.36-16.3,4.69-17.6,13.51,0,.26-.05.52-.08.79a17.23,17.23,0,0,1,7.35-6.41,16.22,16.22,0,0,1,9.36-1.28,16.53,16.53,0,0,1,8.56,4.17,18,18,0,0,1,5.16,8.43c0-.26.12-.51.15-.77C110,67.78,104.18,59.52,95.75,58.16Z"/>
      <path d="M85.42,66.05a11.47,11.47,0,0,0-2.65,5.84,11.29,11.29,0,0,0,9.06,12.94,10.91,10.91,0,0,0,12.35-9.48,11.72,11.72,0,0,0-.84-6.41,16.53,16.53,0,0,0-8.56-4.17A16.22,16.22,0,0,0,85.42,66.05Z"/>
    </g>
    <path class="cls-16" d="M57.14,97.62c1.69.18,5.87.38,7.56.36"/>
    <g>
      <polyline class="cls-18" points="64.71 150.67 61.32 152.28 65.28 153.07"/>
      <polyline class="cls-18" points="65.44 153.43 63.6 155.98 67.63 156.19"/>
      <polyline class="cls-18" points="80.25 151.09 83.25 152.41 79.56 153.29"/>
      <polyline class="cls-18" points="79.37 153.67 81.67 156.22 77.46 156.06"/>
      <polyline class="cls-18" points="64.69 150.05 63.41 135.59 70.73 142.41"/>
      <polyline class="cls-18" points="74.22 142.42 81.56 135.77 80.25 149.02"/>
      <ellipse class="cls-18" cx="72.47" cy="150.05" rx="7.78" ry="7.84"/>
      <ellipse class="cls-18" cx="75.72" cy="150.2" rx="2.95" ry="3.09"/>
      <ellipse class="cls-19" cx="75.75" cy="150.2" rx="1.73" ry="1.81"/>
      <ellipse class="cls-18" cx="68.93" cy="149.98" rx="2.95" ry="3.09"/>
      <ellipse class="cls-20" cx="68.93" cy="149.98" rx="1.81" ry="1.89"/>
      <path class="cls-18" d="M69.46,154.39a5.94,5.94,0,0,0,4,.53,3.08,3.08,0,0,0,.84-.28,2,2,0,0,0,.55-.41"/>
    </g>
    <path class="cls-21" d="M96.77,182.47c-.21-4.42-.33-8.84-.54-13.26a71.34,71.34,0,0,0-.63-7.87c-3.61-23-2.55-39.2-5.77-59.51a54.37,54.37,0,0,1-17.81,3,55,55,0,0,1-14.42-1.93c-1.26,28.9-8.77,58.6-12,87.28-.25,2.23-.41,4.71.9,6.48a7,7,0,0,0,3.83,2.29C54.07,200,58,200,61.94,200l16.44-.06c5.32,0,10.71.18,16-.18.5,0,1,0,1.51-.06a2.62,2.62,0,0,0,2.25-1.33,3.64,3.64,0,0,0,.06-1.94A133.09,133.09,0,0,1,96.77,182.47Z"/>
    <path class="cls-21" d="M140,34.73c0-2.13-2.11-12.41-12.65-18.08-7.6-4.1-14.78-.52-18.2,1.79a29.76,29.76,0,0,0-23.79-2.08C80.54,18.09,70,25.58,70,25.58s-11.36-9-20.13-10h0a35.23,35.23,0,0,0-18,3.21c-6.2-6.2-19.31-6.33-26.52,3.06-8.61,11.21-4.57,17.95-3.3,20,1.63,2.67,4.84,4.6,7.42,5.79a68.51,68.51,0,0,0,.4,7.07c.65,7.72,9.46,17,9.46,17s-.49,15.2,4.73,22.54,12,14.45,14,15.34,4.23.29,3.95-2.29-2.78-8.08-3.7-10.33c-.46-1.12-2-3.44-3.79-7.43a70.71,70.71,0,0,1-5-17.9c-2.47-16-1.36-19.54.74-20.53s6.93,2.13,8.66,3.65,7.25,2.34,8.9.68,6-11,8.57-10.29,5.61,5.44,7.91,7.94,2.32,5.28,5.32,5.66S78.07,46.06,82.64,46s7.7,11.88,15.53,8.74,9.15-7,11.54-4.17S112.1,60,112.1,60.9s1,16.13-1,22.61c-1.64,5.21-6.68,8.6-9.24,12.33a8.72,8.72,0,0,0-1.36,2.84c-1.24,5-3.85,10.48-1.24,11.92s17.48-12.95,19.13-20.31,1.74-15.84,2.43-19.3a.3.3,0,0,0,0-.1l.13-.4c1.36-3.48,9.52-9,9.26-20,0-.95-.07-1.84-.13-2.7C134.47,47.14,140,44.26,140,34.73Z"/>
  </g>
</svg>
